<svg width="20" height="20" viewBox="0 0 20 20" fill="none" xmlns="http://www.w3.org/2000/svg">
<path d="M15.6593 9.17074H6.35101L10.4177 5.10407C10.7427 4.77907 10.7427 4.24574 10.4177 3.92074C10.262 3.7647 10.0506 3.677 9.83018 3.677C9.60975 3.677 9.39837 3.7647 9.24268 3.92074L3.75101 9.41241C3.42601 9.73741 3.42601 10.2624 3.75101 10.5874L9.24268 16.0791C9.56768 16.4041 10.0927 16.4041 10.4177 16.0791C10.7427 15.7541 10.7427 15.2291 10.4177 14.9041L6.35101 10.8374H15.6593C16.1177 10.8374 16.4927 10.4624 16.4927 10.0041C16.4927 9.54574 16.1177 9.17074 15.6593 9.17074Z" fill="#080E2F"/>
</svg>

