<svg width="21" height="21" viewBox="0 0 21 21" fill="none" xmlns="http://www.w3.org/2000/svg">
<path d="M16.0125 4.99612C15.849 4.83227 15.6271 4.7402 15.3956 4.7402C15.1642 4.7402 14.9422 4.83227 14.7788 4.99612L10.5 9.26612L6.22126 4.98737C6.05778 4.82352 5.83583 4.73145 5.60438 4.73145C5.37293 4.73145 5.15098 4.82352 4.9875 4.98737C4.64625 5.32862 4.64625 5.87987 4.9875 6.22112L9.26626 10.4999L4.9875 14.7786C4.64625 15.1199 4.64625 15.6711 4.9875 16.0124C5.32875 16.3536 5.88001 16.3536 6.22126 16.0124L10.5 11.7336L14.7788 16.0124C15.12 16.3536 15.6713 16.3536 16.0125 16.0124C16.3538 15.6711 16.3538 15.1199 16.0125 14.7786L11.7338 10.4999L16.0125 6.22112C16.345 5.88862 16.345 5.32862 16.0125 4.99612Z" fill="#080E2F"/>
</svg>
