<svg width="15" height="15" viewBox="0 0 15 15" fill="none" xmlns="http://www.w3.org/2000/svg">
<path fill-rule="evenodd" clip-rule="evenodd" d="M10.2883 9.6626H10.9796L14.6896 13.3901C15.0483 13.7488 15.0483 14.3351 14.6896 14.6938C14.3308 15.0526 13.7446 15.0526 13.3858 14.6938L9.66705 10.9751V10.2838L9.4308 10.0388C8.2058 11.0888 6.53455 11.6313 4.7583 11.3338C2.3258 10.9226 0.383301 8.8926 0.0858013 6.4426C-0.369199 2.74135 2.7458 -0.373654 6.44705 0.0813457C8.89705 0.378846 10.9271 2.32135 11.3383 4.75385C11.6358 6.5301 11.0933 8.20135 10.0433 9.42635L10.2883 9.6626ZM1.79205 5.7251C1.79205 7.90385 3.5508 9.6626 5.72955 9.6626C7.9083 9.6626 9.66705 7.90385 9.66705 5.7251C9.66705 3.54635 7.9083 1.7876 5.72955 1.7876C3.5508 1.7876 1.79205 3.54635 1.79205 5.7251Z" fill="#1B1B1B"/>
</svg>

